<svg id="Layer_1" data-name="Layer 1" xmlns="http://www.w3.org/2000/svg" viewBox="0 0 481 481"><defs><style>.cls-1{fill:#132be2;stroke:#000de9;stroke-miterlimit:10;}</style></defs><title>banks2</title><path class="cls-1" d="M400,345.89l-20.37-12.21A40,40,0,0,0,359.07,328H328.41a72.51,72.51,0,0,0-18.6,2.4l-92.39,24.8a32.23,32.23,0,0,0-21.76,20.18l-81.26-44a31.84,31.84,0,0,0-21.75-3.59,30,30,0,0,0-8.09,2.65,31.48,31.48,0,0,0-13.74,12.8,32,32,0,0,0-4.23,15.92A31.68,31.68,0,0,0,82.4,386.86L228.05,474a40,40,0,0,0,21.06,6H361.82a40,40,0,0,0,14.71-2.8L400,467.93V480h80V320H400ZM370.65,462.32a23.89,23.89,0,0,1-8.8,1.68H249.11a24,24,0,0,1-12.75-3.66L90.51,373.09a15.9,15.9,0,0,1-8-13.89,16.27,16.27,0,0,1,2.14-8,15.77,15.77,0,0,1,6.87-6.34,15,15,0,0,1,4-1.3,16.71,16.71,0,0,1,3.07-.29,15.75,15.75,0,0,1,7.84,2.08L194.6,393c.1.49.1,1,.23,1.46a32.1,32.1,0,0,0,30.93,23.68A78.77,78.77,0,0,0,239,415.75l83.11-22.24-4.12-15.46L235.09,400.2c-3.65.84-8.36,1.8-9.33,1.88A16,16,0,0,1,210.3,390.3a14.84,14.84,0,0,1-.47-3s-.06-1.94,0-2.62a16.18,16.18,0,0,1,11.77-14.11L314,345.9a56.06,56.06,0,0,1,14.46-1.9h30.66a24,24,0,0,1,12.33,3.41L400,364.54v86.18ZM416,336h48V464H416Z" transform="translate(0.5 0.5)"/><path class="cls-1" d="M330,64,287,21.09A71.53,71.53,0,0,0,236.13,0H135.55a40.38,40.38,0,0,0-17.89,4.22l-17.93,9a23.66,23.66,0,0,1-11.6,2.51L80,15.42V0H0V176H80V152H93.6l4.84,3.2A88.16,88.16,0,0,0,144,169.86V272H480V64ZM64,160H16V16H64Zm43.3-18.11L98.4,136H80V31.43l7.54.27a40.28,40.28,0,0,0,19.35-4.2l17.91-9A24,24,0,0,1,135.55,16H236.13a55.63,55.63,0,0,1,39.6,16.4L307.33,64h-66L221.89,44.59l-11.3,11.3,56.51,56.52a16,16,0,0,1-22.64,22.73L197.26,88l-5.6,4.8a42.42,42.42,0,0,1-53.93.79l-4.63-3.75L123,102.21,127.7,106A58.54,58.54,0,0,0,144,115.2v38.66A72.2,72.2,0,0,1,107.3,141.89Zm113.8-7.49,12.07,12.07a32.22,32.22,0,0,0,45.2,0,40.46,40.46,0,1,0,4.54-5.8A31.45,31.45,0,0,0,285.54,112H392.66A48.16,48.16,0,0,0,432,151.34v33.32A48.16,48.16,0,0,0,392.66,224H231.34A48.16,48.16,0,0,0,192,184.66V151.34A47.82,47.82,0,0,0,221.1,134.4ZM288,168a24,24,0,1,1,24,24A24,24,0,0,1,288,168Zm176,88H160V118.55a58.18,58.18,0,0,0,36-9.2L209.65,123A31.92,31.92,0,0,1,184,136h-8v64h8a32,32,0,0,1,32,32v8H408v-8a32,32,0,0,1,32-32h8V136h-8a32,32,0,0,1-32-32V96H273.31l-16-16H464Z" transform="translate(0.5 0.5)"/></svg>