<svg id="Capa_1" data-name="Capa 1" xmlns="http://www.w3.org/2000/svg" viewBox="0 0 512 444.57"><defs><style>.cls-1{fill:#f90000;}</style></defs><title>hospital2</title><path class="cls-1" d="M105.05,168.77H0V478.28H105.05ZM69.4,371.34H35.64v-30H69.4Zm0-67.52H35.64v-30H69.4ZM35.64,236.3v-30H69.4v30Z" transform="translate(0 -33.71)"/><path class="cls-1" d="M407,478.29H512V168.77H407Zm35.65-272h33.76v30H442.6Zm0,67.52h33.76v30H442.6Zm33.76,67.52v30H442.6v-30Z" transform="translate(0 -33.71)"/><path class="cls-1" d="M203.48,438.86H241v39.43H203.48Z" transform="translate(0 -33.71)"/><path class="cls-1" d="M271,438.86h37.52v39.43H271Z" transform="translate(0 -33.71)"/><path class="cls-1" d="M135.05,478.29h38.43V408.87h165v69.42H377V33.71H135.05Zm137.83-107H239.12v-30h33.76Zm0-67.52H239.12v-30h33.76Zm0-67.52H239.12v-30h33.76Zm67.52,135H306.64v-30H340.4Zm0-67.52H306.64v-30H340.4Zm0-67.52H306.64v-30H340.4Zm-135-131.25H241V69.41h30v35.64h35.64v30H271v35.64H241V135.05H205.36ZM171.6,206.3h33.76v30H171.6Zm0,67.52h33.76v30H171.6Zm0,67.52h33.76v30H171.6Z" transform="translate(0 -33.71)"/></svg>